<svg id="Layer_1" data-name="Layer 1" xmlns="http://www.w3.org/2000/svg" viewBox="0 0 265.88 265.66"><defs><style>.cls-1{fill:#ec008c;fill-rule:evenodd;}</style></defs><title>logo_original_rechts</title><path class="cls-1" d="M504.17,351.2l11.44,7.73c-5.21.16-10.75,1.13-16,1.32l-2.49.24-3.23,4,19,13.8,3.81-4.79-11-7.81,17.57-1.53,3.06-4.73-18.81-13Zm-10.29,44.39L504,387.23l-3.1-3.58-5.34,4.26L493,384.84l4.68-4.15c-1-1.22-1.92-2.28-3-3.49l-4.8,4L487,377.82l5.44-4.44-2.88-3.74-10.29,8.08Zm-24.53,13.35a14.72,14.72,0,0,0,9.47-4.18c3.56-3.71,3.25-9.51,1-13.86l-10.31,4.68,1.93,4.42,4.39-1.93c-1.32,5.92-9.33,7.7-12,1.1-1.15-2.79-.79-6.24,1.78-8.09,2.23-1.94,5.06-1.39,7.77-.14,1.22-1.18,2.44-2.37,3.64-3.58-5-4.33-10.5-4-15.78.22-4.25,3.46-5,9.83-2.68,14.63A11.7,11.7,0,0,0,469.35,408.94Zm-57.51-8.56-.95,18.55,5.15.28,1-18.58.25-4.55-5.23-.29Zm-23.17-9-1.13,4.47,4.69,1.19-4.51,18,5,1.26,4.61-18,5.09,1.27,1.06-4.41Zm-19.53-9.59L367,385.89l4.26,2.29-8.73,16.39L367,407l8.83-16.38,4.63,2.46,2.09-4Zm-8.76-11.25q1.55,1.55,3.15,3.09l2.59-2.81-3.17-3.19C362.08,368.64,361.23,369.6,360.37,370.58Zm-43.89-11.25a14.73,14.73,0,0,0,5.74,8.61c4.27,2.87,9.93,1.57,13.82-1.38l-6.38-9.35-4,2.66,2.65,4c-6.06-.29-9.18-7.87-3.15-11.68,2.55-1.61,6-1.85,8.27.36,2.3,1.86,2.23,4.74,1.48,7.63,1.37,1,2.76,2,4.15,3,3.4-5.69,2.11-11-2.92-15.51-4.14-3.59-10.54-3.23-14.87-.13A11.7,11.7,0,0,0,316.48,359.33Zm208.16-97-10.29,2.82c.46,1.86,1,3.7,1.5,5.55L526.23,268l14.14,3.93-1.83-6.7-7.13-1.78,5.25-4.85-1.95-7Zm-2.77-24.77c.27.64.56,1.27.82,1.92.91,2.33-2.15,4.55-3.62,2.32l-1.22-1.86Zm-7.68,4.27c.33.76.69,1.52,1,2.29,1.13,2.78-2.52,5.49-4.31,2.83l-1.49-2.22Zm-11.26-.16a56.63,56.63,0,0,0,6.17,10.57c2.31,3.23,7.67,3,10-.14a13.39,13.39,0,0,0,1.56-4.49c3.59,1,8.79-1.91,7.43-7.27a6.08,6.08,0,0,0-.72-1.59l-4.82-8.5C516,234,509.51,237.94,502.92,241.66ZM471,212.61l11,7.15q1.26-2,2.5-4l-5.65-3.83,2.19-3.35,5.34,3.24c.87-1.34,1.61-2.51,2.46-3.87l-5.25-3.4,2.4-3.71,5.85,3.88,2.72-3.86-10.77-7.44Zm33.83,3.91c.49.67,1,1.34,1.47,2,1.69,2.48-1.3,5.9-3.61,3.67l-1.93-1.85Zm-.83-7.44q-8.32,7.93-16.76,15.73l4.28,4.28,5.88-5.42-1.83,10.1,4.64,4.84A74,74,0,0,0,502,227.67c2.35.33,5.1,1.28,7.19-.35,2.55-1.73,4.59-5.22,3.1-8.26C510.1,215.32,506.8,212.38,504,209.07ZM310.63,258.72c.4-.73.77-1.48,1.19-2.2,1.5-2.59,5.88-1.39,4.88,1.66l-.83,2.54Zm-6.34,4Q315,266.76,325.72,271l2-5.71-7.44-2.95,9.89-2.73,2.35-6.28a74,74,0,0,0-10.63,3.1c-.73-2.26-1.06-5.15-3.44-6.32-2.67-1.54-6.7-1.87-8.79.79C307.27,254.5,306,258.75,304.28,262.7Zm80-56.51,12.43-4.11c-.52-1.49-1.05-3-1.59-4.46l-6.52,2-1.26-3.8,5.87-2.16c-.51-1.51-1-2.82-1.49-4.33l-5.93,2-1.4-4.18,6.69-2.16-1.32-4.54-12.53,3.78Zm-23.27,104c.69-2.77,2.28-7,5.81-6.35.82,1,1.81,2.81.91,3.9A29.29,29.29,0,0,0,361.06,310.16Zm-6.26-4.21c2-2.12,2.8-6.05,6.34-6,1.36.66,1.68,2.23,2.29,3.47A36.8,36.8,0,0,1,354.8,305.94ZM328.32,229c3.45-1.79,7.93.44,8.92,4.11,1.19,3.12-.89,6.77-3.83,8-2.42.59-5.36.56-7.16-1.44C323.06,236.74,324.24,230.63,328.32,229Zm131.34-41.36c1.89,1,4.16,1.81,5,3.92a7.76,7.76,0,0,1-.12,5.74c-.74,1.77-2.56,3.84-4.62,4-1.24.11-2.41-.58-4.61-1.23Zm-50.45-6.46c.83,0,1.67.05,2.5.11,3,.23,3.8,4.69.62,5.12l-2.65.35Zm2.93-8.5c21.21-1.32,42.89,2.25,62.09,11.54a125.42,125.42,0,0,1,72.4,118.88c-1.21,40-23.36,78.56-57,100.19-20.25,13.08-44.28,20.58-68.45,20.23a122.21,122.21,0,0,1-45-8.2,126,126,0,0,1-69.77-66.19,122.31,122.31,0,0,1-10.77-54.05C296,254.47,318.23,215,352.36,193A124.91,124.91,0,0,1,412.14,172.7Zm-11.46,180a14.42,14.42,0,0,1,1.89-.19c1-6.78,3.21-14.25,3.89-21.06.92-7.59,2.83-15.47.51-23-3.16,4.19-3.34,9.79-4,14.81-.08,6.54.3,13.16-.72,19.64C401.76,346.21,401.12,349.42,400.68,352.74Zm9.19.63c.55.12,1.08.26,1.59.39,2.21.59,1.4,1.5,1.39,3.68,0,1.81,0,3.63-.19,5.43a5.42,5.42,0,0,0,1.28-2c2.43-2.87,6.64-1.59,9.92-1.79.15-1.81.35-3.6.51-5.4,1.63-.12,3.25-.21,4.89-.29.51-4,1.26-8,1-12-.07-5.86-2.53-11.28-4.54-16.67-1.88-5-3-10.2-4.51-15.29-1.55,5.14-2.59,10.43-4.19,15.56C414.28,334,412.81,344.34,409.87,353.37Zm.64,15.39a5.8,5.8,0,0,1-1,4.86c-1.92-.19-4.26.46-5.75-1.12-1.42-1.11-1.49-3-1.89-4.65l-3.9.05c-.09,1.42-.2,2.83-.32,4.25a9.32,9.32,0,0,1-7-.26c-.12-1.2-.23-2.39-.33-3.58-1.87.19-4.05.61-5.49-1-.07-.68-.07-2.12-.05-3.28a9.14,9.14,0,0,1-1.86,3.19,11.81,11.81,0,0,1-2.36-1.19c-1.29-1.06-.61-2.85-.74-4.28-1.06.44-2.1,1.16-3.29,1.11a16.76,16.76,0,0,1-2.78-1.82l.75-1.92a6.25,6.25,0,0,0,4.49-3.67c2.27-3.71,7.14-3.07,10.83-2.8q.12-2.86.4-5.71c2.65,0,2.66,0,5.3,0l.08-1.07c.65-9.5-.44-19-1.3-28.43-.27-2.42.7-4.79.38-7.2a14,14,0,0,0-6-7.09l-1.6,1.08c-1.7,3.61-1,8.28-4,11.28-4.2,2.76-9.67-1.84-9.57-6.36,4.77-.09,9.69-2.85,11.16-7.57-.33-1.29-1-2.46-1.37-3.73.21-1.55,1.14-3,.77-4.63a3.09,3.09,0,0,0-3.1-.86c-2.09,1.21-3.54,3.26-5.67,4.42-2.26.56-4.61.05-6.9.3a2.17,2.17,0,0,0,.65,4c1.87,1.18,3.62-.61,5.39-1.11a52.72,52.72,0,0,1,5.72,1.5c-3.76,1-7.47,3.18-11.44,2.75-3-1.78-5.1-4.82-8.42-6.06-1.26-.61-2.78-1-3.63-2.18-.71-3.09,1.42-5.88,1.73-8.9.88-3.79-1.15-7.31-1.84-10.93-.25-3.39.35-7.6,3.74-9.25,1.27,1.94,2.15,4.16,3.76,5.85,2.18,1.3,4.78,0,6.82-1,3-1.67,6.58,0,9.6-1.29,4.68-2.54,4.3-8.93,8.26-12.12a8.27,8.27,0,0,1,2.88-.62,50,50,0,0,1,1,7c.1,3.67-.74,7.39.2,11,3.25-3.43,3.62-8.31,5.26-12.53a42.44,42.44,0,0,1,9.17-14.59c4.65-4.84,10.34-8.51,15.78-12.38,2.58-2,5.43,1.27,8.25.57,3.37-.69,6.74-1.58,10.21-1.24.74,2.67,1.25,5.71,3.52,7.57,2.65,2.33,7,3,8.27,6.7.89,5-1.1,11.61,3.61,15.21a42.35,42.35,0,0,1,1.64-11.42c.9-2.85.27-5.79-.2-8.64,1.37-.64,3-.85,4.16-1.88,1.94-2.9,2.54-6.44,4.18-9.48,2.56-1.78,5.33-3.42,6.67-6.4a78.55,78.55,0,0,0-15.06-9c-26.51-12.68-59.36-10.52-84.08,5.31a89,89,0,0,0-32.88,37.3,88.23,88.23,0,0,0,16.89,98.67,87.53,87.53,0,0,0,44.65,24.69,89.85,89.85,0,0,0,47.88-3.2,88,88,0,0,0,37.83-26.45,87.08,87.08,0,0,0,20.51-58c0-16.67-5.44-33.07-14.46-47a54.81,54.81,0,0,0-8.13,8.25c-2.13,2.72-5.18,4.45-7.71,6.74-2.3,1.86-1.39,5.18-2.6,7.58-2.15,2.83-5.82,3.7-8.43,6a43.57,43.57,0,0,0-7.29,8.62c-.91,1.17-.64,2.72-.82,4.1-.11,2.1-1.89,3.68-2.06,5.75.57,2,2,3.7,3,5.53a41.65,41.65,0,0,0-3.7,4.29c-1.47,2.14-2,4.73-3,7.09-1.16,3.06-3.13,5.74-4.3,8.8a24.3,24.3,0,0,0-1.21,11.21c.31,2.9,1.81,5.45,2.73,8.17.64,1.52-.23,3.06-.68,4.51a74.36,74.36,0,0,0-3.05,11.79c1.2.63,3.09.59,3.76,1.84.27,3.53-.17,7.08-.2,10.63l-2.7,1.47a18.79,18.79,0,0,1,1.06,5.36c-1.9.87-4.17,2.15-6.21.87-2.18-.88-1.92-3.73-3.3-5.27-1,0-2.26-.32-3.11.41-.35,1.3-.56,2.64-.82,4a7.22,7.22,0,0,1-7.13-1.05c.09-1.21.2-2.41.32-3.61a11.33,11.33,0,0,1-5.17.92c-.35-1.63-.69-3.25-1-4.87l-1.26.48a21.7,21.7,0,0,1-1,3.55,4.7,4.7,0,0,1-4.93.59c-1.84-.74-1.71-3-2.15-4.62l-1.73,1A9.59,9.59,0,0,0,410.51,368.76Zm-7.64-191.55q1,11.45,1.85,22.9l6-.68-.57-8,6.75,7.73,6.68-.61a74,74,0,0,0-7.41-8.23c1.72-1.63,4.18-3.19,4.21-5.84.23-3.07-1.22-6.84-4.52-7.57C411.55,176.35,407.19,177.09,402.87,177.21Zm45,25.73,8.66,3.05a9.46,9.46,0,0,0,6.4.12c6.55-1.87,10.47-10,7.09-16.17-2.59-5.59-9.15-6.8-14.35-8.8Zm-92.5-7.31,11.34,20,11.45-6.27L376,205.45l-6.85,3.36L360.44,193C358.75,193.86,357.07,194.73,355.4,195.64Zm-10.9,46.63a95.32,95.32,0,0,0-18.08,59.38c1,22.16,9.47,44.42,25.13,60.36l2.44-2.5c-5.93-7.1-11.47-14.61-15.27-23.09A90.74,90.74,0,0,1,361,229.88a90.86,90.86,0,0,1,105.14-10.78c4.08,2.09,7.6,5.07,11.54,7.4.16-1.73,1.14-4.07-.85-5.11a94,94,0,0,0-51.27-17.95C394.33,201.62,362.68,216.77,344.5,242.27Zm-8.28-31.86,15.32,17.16c3.36-2.72,6.51-5.68,9.75-8.54a43.59,43.59,0,0,0-3.38-3.64L352.67,220,340.38,206.7C339,208,337.62,209.19,336.22,210.41Zm-9.45,12.64a14.27,14.27,0,0,0-7.86,8.85c-2.23,6.32,2.1,14,8.64,15.42,8.14,2.42,16.5-5.56,15.92-13.66a12.55,12.55,0,0,0-9.06-11A14.68,14.68,0,0,0,326.77,223.05ZM495.9,246c1,2.36,2.73,4.34,4,6.58a91,91,0,0,1-58.61,134.14C432,389,422.42,389.12,413,388.61a92.67,92.67,0,0,1-36.85-11.54c-2.16-1.15-4-2.8-6.3-3.77-1.87-.05-2.84,3.05-1,3.82a95.51,95.51,0,0,0,44.62,15.34c8.17.2,16.44.48,24.5-1.15,14-2.65,27.57-8.06,39-16.65a94.84,94.84,0,0,0,27.88-121.19c-2.28-4.12-4.53-8.33-7.74-11.81A19.89,19.89,0,0,0,495.9,246Zm-114.2,35.6c-2.46.79-3.41,3.35-4,5.62,3.51-.72,7.14-1.76,9.76-4.35C385.88,281.43,383.73,280.52,381.7,281.56Zm-18.55,6.12a25.36,25.36,0,0,0-.43,2.75,16.77,16.77,0,0,0,5.07.71c1.32-.64,1.19-2,1-3.21C367.17,286.82,364.67,286.11,363.15,287.69Zm9.24,5.46c-.06.95-.11,1.9-.16,2.85l3.86-.39V293C374.86,293.06,373.63,293.1,372.4,293.14ZM526.77,308.6c-3,0-6.07,0-9.1.12a48.35,48.35,0,0,0,7,5.47c-.63,3.07-1.59,6.06-2.29,9.11,2.53-1.68,5-3.45,7.43-5.26a94.76,94.76,0,0,1,7.81,5.76c-.88-3.2-1.84-6.36-2.8-9.53a39.89,39.89,0,0,0,6.87-5.54c-2.94-.17-5.88-.13-8.83-.17-1-3-2-6-3.07-9Q528.37,304.1,526.77,308.6Zm-217.37-.06c-3,.11-5.93.06-8.89.24a88.51,88.51,0,0,0,6.94,5.79c-.83,2.9-1.86,5.73-2.64,8.64,2.07-1.22,3.94-2.75,5.95-4.06.69-.39,1.6-1.11,2.4-.5,2.43,1.39,4.58,3.23,7,4.68-.85-3-1.87-5.86-2.73-8.81,2.36-1.8,4.88-3.46,6.82-5.75-2.91-.27-5.85-.2-8.77-.23q-1.25-4.16-2.86-8.2A67.18,67.18,0,0,0,309.41,308.54Zm68.84,4.09a25.54,25.54,0,0,0,2.78.16,12.34,12.34,0,0,0,1.23-2.79A7.1,7.1,0,0,0,378.24,312.63Zm59.46,23c-.12,4.44.45,9-1.07,13.31-.39,1.81-1.66,3.64-1,5.53.93,2.74.43,5.65.28,8.47.92,0,2,.63,2.83,0,.28-2.46.4-5.15,2.85-6.46C440.9,349.51,441.64,341.87,437.71,335.67Zm-83.37,29.5q1.57,1.53,3.19,3.05l2.55-2.84-3.21-3.15C356,363.2,355.17,364.18,354.33,365.17ZM443.72,394l2.57,13.57c-3.78-3.59-8.37-6.84-12.17-10.4l-1.93-1.6-5.11.51,3.61,23.24,6.08-.66-2.21-13.32L448,416.71l5.51-1.16-4-22.49ZM409.22,169.1A129.32,129.32,0,0,0,330,389.93a129.67,129.67,0,0,0,170,10.76c6.2-4.56,11.55-10.11,16.93-15.59,21.58-23.73,34.06-55.68,33.51-87.82.14-31-11.74-61.67-32.19-84.85a132.05,132.05,0,0,0-26.81-23C467.42,173.52,437.87,166.52,409.22,169.1Zm1.48-3.61c6.11-.36,12.24-.23,18.35-.13a131.89,131.89,0,0,1,81.26,34.14c27.6,24.67,44.16,61.42,43.64,98.51.44,31.94-11.69,63.74-32.84,87.62-23.9,27.6-59.72,44.65-96.28,45.18-37.45,1.53-75-14.3-100.53-41.68a132.28,132.28,0,0,1-35.71-80.82c-.14-4.89-.85-9.77-.29-14.66A133,133,0,0,1,410.7,165.49Zm-55,214.64c.82,3.8-2.52,7.53-6.32,7.52-3.33.32-6.3-2.65-6.73-5.82.08-2.49.88-5.32,3.28-6.53C349.68,373,355.27,375.77,355.74,380.13Zm6.17.09a14.27,14.27,0,0,0-6.45-9.92c-5.5-3.82-14-1.67-17.16,4.26-4.49,7.21,1,17.38,9,19a12.55,12.55,0,0,0,13-5.84A14.68,14.68,0,0,0,361.9,380.22Z" transform="translate(-288.09 -165.25)"/></svg>